<?xml version="1.0" encoding="UTF-8"?>
<svg width="13px" height="13px" viewBox="0 0 13 13" version="1.1" xmlns="http://www.w3.org/2000/svg" xmlns:xlink="http://www.w3.org/1999/xlink">
    <!-- Generator: Sketch 39.1 (31720) - http://www.bohemiancoding.com/sketch -->
    <title></title>
    <desc>Created with Sketch.</desc>
    <defs></defs>
    <g id="Page-1" stroke="none" stroke-width="1" fill="none" fill-rule="evenodd">
        <path d="M12.8571429,0.535714286 L12.8571429,12.3214286 C12.8571429,12.4665186 12.80413,12.5920754 12.6981027,12.6981027 C12.5920754,12.80413 12.4665186,12.8571429 12.3214286,12.8571429 L8.03571429,12.8571429 C7.89062427,12.8571429 7.76506749,12.80413 7.65904018,12.6981027 C7.55301286,12.5920754 7.5,12.4665186 7.5,12.3214286 L7.5,0.535714286 C7.5,0.390624275 7.55301286,0.265067494 7.65904018,0.159040179 C7.76506749,0.0530128627 7.89062427,0 8.03571429,0 L12.3214286,0 C12.4665186,0 12.5920754,0.0530128627 12.6981027,0.159040179 C12.80413,0.265067494 12.8571429,0.390624275 12.8571429,0.535714286 L12.8571429,0.535714286 Z M5.35714286,0.535714286 L5.35714286,12.3214286 C5.35714286,12.4665186 5.30412999,12.5920754 5.19810268,12.6981027 C5.09207536,12.80413 4.96651858,12.8571429 4.82142857,12.8571429 L0.535714286,12.8571429 C0.390624275,12.8571429 0.265067494,12.80413 0.159040179,12.6981027 C0.0530128627,12.5920754 0,12.4665186 0,12.3214286 L0,0.535714286 C0,0.390624275 0.0530128627,0.265067494 0.159040179,0.159040179 C0.265067494,0.0530128627 0.390624275,0 0.535714286,0 L4.82142857,0 C4.96651858,0 5.09207536,0.0530128627 5.19810268,0.159040179 C5.30412999,0.265067494 5.35714286,0.390624275 5.35714286,0.535714286 L5.35714286,0.535714286 Z" id="" fill="#FFFFFF"></path>
    </g>
</svg>